<?xml version="1.0" standalone="no"?><!DOCTYPE svg PUBLIC "-//W3C//DTD SVG 1.1//EN" "http://www.w3.org/Graphics/SVG/1.1/DTD/svg11.dtd"><svg t="1750728341939" class="icon" viewBox="0 0 1024 1024" version="1.1" xmlns="http://www.w3.org/2000/svg" p-id="17531" xmlns:xlink="http://www.w3.org/1999/xlink" width="128" height="128"><path d="M907.636364 768h-88.436364a23.272727 23.272727 0 0 1 0-46.545455H884.363636V422.865455L791.272727 325.818182h-139.636363a23.272727 23.272727 0 0 1-23.272728-23.272727v-69.818182H139.636364v488.727272h42.356363a23.272727 23.272727 0 0 1 0 46.545455H116.363636a23.272727 23.272727 0 0 1-23.272727-23.272727V209.454545a23.272727 23.272727 0 0 1 23.272727-23.272727h535.272728a23.272727 23.272727 0 0 1 23.272727 23.272727v69.818182h126.370909a23.272727 23.272727 0 0 1 16.756364 7.214546l106.356363 111.010909a23.272727 23.272727 0 0 1 6.516364 16.058182V744.727273a23.272727 23.272727 0 0 1-23.272727 23.272727z" p-id="17532" fill="#b89a68"></path><path d="M622.312727 768h-217.6a23.272727 23.272727 0 0 1 0-46.545455h217.6a23.272727 23.272727 0 0 1 0 46.545455z" p-id="17533" fill="#b89a68"></path><path d="M279.272727 861.090909a116.363636 116.363636 0 1 1 116.363637-116.363636 116.363636 116.363636 0 0 1-116.363637 116.363636z m0-186.181818a69.818182 69.818182 0 1 0 69.818182 69.818182 69.818182 69.818182 0 0 0-69.818182-69.818182zM721.454545 861.090909a116.363636 116.363636 0 1 1 116.363637-116.363636 116.363636 116.363636 0 0 1-116.363637 116.363636z m0-186.181818a69.818182 69.818182 0 1 0 69.818182 69.818182 69.818182 69.818182 0 0 0-69.818182-69.818182zM651.636364 558.545455H116.363636a23.272727 23.272727 0 0 1 0-46.545455h535.272728a23.272727 23.272727 0 0 1 0 46.545455z" p-id="17534" fill="#b89a68"></path><path d="M651.636364 558.545455a23.272727 23.272727 0 0 1-23.272728-23.272728V302.545455a23.272727 23.272727 0 0 1 46.545455 0v232.727272a23.272727 23.272727 0 0 1-23.272727 23.272728zM814.545455 488.727273a23.272727 23.272727 0 0 1-16.523637-6.749091l-69.818182-69.818182a23.272727 23.272727 0 0 1 33.047273-33.047273l69.818182 69.818182a23.272727 23.272727 0 0 1 0 33.047273A23.272727 23.272727 0 0 1 814.545455 488.727273z" p-id="17535" fill="#b89a68"></path></svg>